<mxfile host="app.diagrams.net" modified="2020-07-21T17:03:49.131Z" agent="5.0 (Macintosh; Intel Mac OS X 10_15_5) AppleWebKit/537.36 (KHTML, like Gecko) Chrome/83.0.4103.116 Safari/537.36" etag="olpln75fGOxs-3PEo6nV" version="13.4.9" type="github">
  <diagram name="Page-1" id="74b105a0-9070-1c63-61bc-23e55f88626e">
    <mxGraphModel dx="1739" dy="1020" grid="1" gridSize="10" guides="1" tooltips="1" connect="1" arrows="1" fold="1" page="1" pageScale="1.5" pageWidth="1169" pageHeight="826" background="none" math="0" shadow="0">
      <root>
        <mxCell id="0" style=";html=1;" />
        <mxCell id="1" style=";html=1;" parent="0" />
        <mxCell id="10b056a9c633e61c-4" value="Query Endpoint" style="strokeWidth=2;dashed=0;align=center;fontSize=12;shape=rect;verticalLabelPosition=bottom;verticalAlign=top;fillColor=#d5e8d4;strokeColor=#82b366;" parent="1" vertex="1">
          <mxGeometry x="632" y="500" width="108" height="60" as="geometry" />
        </mxCell>
        <mxCell id="10b056a9c633e61c-14" value="Data Processing Layer" style="strokeWidth=2;dashed=0;align=center;fontSize=12;fillColor=#d5e8d4;verticalLabelPosition=bottom;verticalAlign=top;shape=mxgraph.eip.composed_message_processor;strokeColor=#82b366;" parent="1" vertex="1">
          <mxGeometry x="740" y="700" width="180" height="110" as="geometry" />
        </mxCell>
        <mxCell id="10b056a9c633e61c-15" value="Message Store (Parquet)" style="strokeWidth=2;dashed=0;align=center;fontSize=12;verticalLabelPosition=bottom;verticalAlign=top;shape=mxgraph.eip.message_store;fillColor=#c0f5a9" parent="1" vertex="1">
          <mxGeometry x="430" y="700" width="220" height="140" as="geometry" />
        </mxCell>
        <mxCell id="10b056a9c633e61c-30" value="Dashboards" style="text;strokeColor=none;fillColor=none;html=1;fontSize=24;fontStyle=1;verticalAlign=middle;align=center;" parent="1" vertex="1">
          <mxGeometry x="80" y="40" width="1590" height="40" as="geometry" />
        </mxCell>
        <object label="UI" id="10b056a9c633e61c-6">
          <mxCell style="strokeWidth=2;dashed=0;align=center;fontSize=12;shape=rect;verticalLabelPosition=bottom;verticalAlign=top;fillColor=#dae8fc;labelPosition=center;strokeColor=#6c8ebf;" parent="1" vertex="1">
            <mxGeometry x="802" y="220" width="150" height="90" as="geometry" />
          </mxCell>
        </object>
        <mxCell id="NB31HuTnCfpeLIGHjAmG-3" value="&lt;font style=&quot;font-size: 19px&quot;&gt;Dashboard&lt;/font&gt;" style="text;html=1;strokeColor=none;fillColor=none;align=center;verticalAlign=middle;whiteSpace=wrap;rounded=0;" vertex="1" parent="1">
          <mxGeometry x="820" y="240" width="120" height="60" as="geometry" />
        </mxCell>
        <mxCell id="NB31HuTnCfpeLIGHjAmG-8" value="&lt;font style=&quot;font-size: 17px&quot;&gt;API&lt;/font&gt;" style="text;html=1;strokeColor=none;fillColor=none;align=center;verticalAlign=middle;whiteSpace=wrap;rounded=0;" vertex="1" parent="1">
          <mxGeometry x="650" y="510" width="70" height="40" as="geometry" />
        </mxCell>
        <mxCell id="NB31HuTnCfpeLIGHjAmG-11" value="Message Store (MapR DB)" style="strokeWidth=2;dashed=0;align=center;fontSize=12;verticalLabelPosition=bottom;verticalAlign=top;shape=mxgraph.eip.message_store;fillColor=#c0f5a9" vertex="1" parent="1">
          <mxGeometry x="1000" y="700" width="220" height="140" as="geometry" />
        </mxCell>
      </root>
    </mxGraphModel>
  </diagram>
</mxfile>
